<mxfile host="app.diagrams.net" modified="2020-07-21T15:38:27.577Z" agent="5.0 (Windows NT 10.0; Win64; x64) AppleWebKit/537.36 (KHTML, like Gecko) Chrome/83.0.4103.116 Safari/537.36" etag="AyqkJyWtx6K8Wfm0yITN" version="13.4.8" type="github" pages="9">
  <diagram name="Page-1" id="197159a0-c6a4-9194-75a8-e4174976684c">
    <mxGraphModel dx="1278" dy="569" grid="1" gridSize="10" guides="1" tooltips="1" connect="1" arrows="1" fold="1" page="1" pageScale="1.5" pageWidth="1169" pageHeight="826" background="none" math="0" shadow="0">
      <root>
        <mxCell id="0" style=";html=1;" />
        <mxCell id="1" style=";html=1;" parent="0" />
        <mxCell id="1257a543d1cacc4b-46" value="DR site 2" style="whiteSpace=wrap;html=1;fillColor=#dae8fc;fontSize=14;strokeColor=none;verticalAlign=bottom;" parent="1" vertex="1">
          <mxGeometry x="988" y="643" width="514" height="260" as="geometry" />
        </mxCell>
        <mxCell id="1257a543d1cacc4b-45" value="Production site 2" style="whiteSpace=wrap;html=1;fillColor=#dae8fc;fontSize=14;strokeColor=none;verticalAlign=bottom;" parent="1" vertex="1">
          <mxGeometry x="252" y="643" width="660" height="260" as="geometry" />
        </mxCell>
        <mxCell id="1257a543d1cacc4b-44" value="DR site 1" style="whiteSpace=wrap;html=1;fillColor=#dae8fc;fontSize=14;strokeColor=none;verticalAlign=top;" parent="1" vertex="1">
          <mxGeometry x="988" y="306" width="514" height="277" as="geometry" />
        </mxCell>
        <mxCell id="1257a543d1cacc4b-43" value="Production site 1" style="whiteSpace=wrap;html=1;fillColor=#dae8fc;fontSize=14;strokeColor=none;verticalAlign=top;" parent="1" vertex="1">
          <mxGeometry x="252" y="307" width="660" height="276" as="geometry" />
        </mxCell>
        <mxCell id="1257a543d1cacc4b-11" style="edgeStyle=orthogonalEdgeStyle;rounded=0;html=1;startSize=10;endSize=10;jettySize=auto;orthogonalLoop=1;fontSize=14;endArrow=none;endFill=0;strokeColor=#808080;" parent="1" source="1257a543d1cacc4b-1" target="1257a543d1cacc4b-5" edge="1">
          <mxGeometry relative="1" as="geometry">
            <Array as="points">
              <mxPoint x="469" y="347" />
              <mxPoint x="604" y="347" />
            </Array>
          </mxGeometry>
        </mxCell>
        <mxCell id="1257a543d1cacc4b-12" style="edgeStyle=orthogonalEdgeStyle;rounded=0;html=1;startSize=10;endSize=10;jettySize=auto;orthogonalLoop=1;fontSize=14;endArrow=none;endFill=0;strokeColor=#808080;" parent="1" source="1257a543d1cacc4b-1" target="1257a543d1cacc4b-7" edge="1">
          <mxGeometry relative="1" as="geometry">
            <Array as="points">
              <mxPoint x="469" y="347" />
              <mxPoint x="845" y="347" />
            </Array>
          </mxGeometry>
        </mxCell>
        <mxCell id="1257a543d1cacc4b-13" style="edgeStyle=orthogonalEdgeStyle;rounded=0;html=1;startSize=10;endSize=10;jettySize=auto;orthogonalLoop=1;fontSize=14;endArrow=none;endFill=0;strokeColor=#808080;" parent="1" source="1257a543d1cacc4b-1" target="1257a543d1cacc4b-2" edge="1">
          <mxGeometry relative="1" as="geometry">
            <mxPoint x="1452" y="267" as="targetPoint" />
            <Array as="points">
              <mxPoint x="469" y="348" />
              <mxPoint x="1449" y="348" />
            </Array>
          </mxGeometry>
        </mxCell>
        <mxCell id="1257a543d1cacc4b-1" value="Veeam backup server" style="shadow=0;dashed=0;html=1;strokeColor=none;fillColor=#4495D1;labelPosition=center;verticalLabelPosition=top;verticalAlign=bottom;shape=mxgraph.veeam.2d.veeam_backup_and_replication_server;fontSize=14;align=center;" parent="1" vertex="1">
          <mxGeometry x="432" y="203" width="74" height="72" as="geometry" />
        </mxCell>
        <mxCell id="1257a543d1cacc4b-17" style="edgeStyle=orthogonalEdgeStyle;rounded=0;html=1;startSize=10;endSize=10;jettySize=auto;orthogonalLoop=1;fontSize=14;endArrow=none;endFill=0;strokeColor=#808080;" parent="1" source="1257a543d1cacc4b-2" target="1257a543d1cacc4b-8" edge="1">
          <mxGeometry relative="1" as="geometry">
            <Array as="points">
              <mxPoint x="1449" y="348" />
              <mxPoint x="1035" y="348" />
            </Array>
          </mxGeometry>
        </mxCell>
        <mxCell id="1257a543d1cacc4b-2" value="Veeam backup server" style="shadow=0;dashed=0;html=1;strokeColor=none;fillColor=#4495D1;labelPosition=center;verticalLabelPosition=top;verticalAlign=bottom;shape=mxgraph.veeam.2d.veeam_backup_and_replication_server;fontSize=14;align=center;" parent="1" vertex="1">
          <mxGeometry x="1411.9999999999998" y="203" width="74" height="72" as="geometry" />
        </mxCell>
        <mxCell id="1257a543d1cacc4b-10" style="edgeStyle=orthogonalEdgeStyle;rounded=0;html=1;startSize=10;endSize=10;jettySize=auto;orthogonalLoop=1;fontSize=14;endArrow=none;endFill=0;strokeColor=#808080;" parent="1" source="1257a543d1cacc4b-3" target="1257a543d1cacc4b-1" edge="1">
          <mxGeometry relative="1" as="geometry">
            <mxPoint x="452" y="307" as="targetPoint" />
            <Array as="points">
              <mxPoint x="298" y="347" />
              <mxPoint x="469" y="347" />
            </Array>
          </mxGeometry>
        </mxCell>
        <mxCell id="1257a543d1cacc4b-3" value="" style="shadow=0;dashed=0;html=1;strokeColor=none;fillColor=#4495D1;labelPosition=center;verticalLabelPosition=bottom;verticalAlign=top;shape=mxgraph.veeam.2d.backup_repository;fontSize=14;" parent="1" vertex="1">
          <mxGeometry x="271.9999999999999" y="489" width="52" height="48" as="geometry" />
        </mxCell>
        <mxCell id="1257a543d1cacc4b-5" value="Source ESX host" style="shadow=0;dashed=0;html=1;strokeColor=none;fillColor=#4495D1;labelPosition=center;verticalLabelPosition=bottom;verticalAlign=top;shape=mxgraph.veeam.2d.vmware_host;fontSize=14;" parent="1" vertex="1">
          <mxGeometry x="542" y="417" width="124" height="120" as="geometry" />
        </mxCell>
        <mxCell id="1257a543d1cacc4b-6" value="Source ESX host" style="shadow=0;dashed=0;html=1;strokeColor=none;fillColor=#4495D1;labelPosition=center;verticalLabelPosition=bottom;verticalAlign=top;shape=mxgraph.veeam.2d.hyper_v_host;fontFamily=Helvetica;fontSize=14;fontColor=#000000;align=center;" parent="1" vertex="1">
          <mxGeometry x="1241.9999999999998" y="417" width="124" height="120" as="geometry" />
        </mxCell>
        <mxCell id="1257a543d1cacc4b-14" style="rounded=0;html=1;startSize=10;endSize=10;jettySize=auto;orthogonalLoop=1;fontSize=14;endArrow=none;endFill=0;strokeColor=#808080;" parent="1" source="1257a543d1cacc4b-7" target="1257a543d1cacc4b-9" edge="1">
          <mxGeometry relative="1" as="geometry" />
        </mxCell>
        <mxCell id="1257a543d1cacc4b-39" style="edgeStyle=elbowEdgeStyle;rounded=0;elbow=vertical;html=1;startSize=10;endArrow=none;endFill=0;endSize=10;jettySize=auto;orthogonalLoop=1;strokeColor=#808080;fontSize=14;entryX=0.841;entryY=0.917;entryPerimeter=0;" parent="1" source="1257a543d1cacc4b-7" target="1257a543d1cacc4b-5" edge="1">
          <mxGeometry relative="1" as="geometry">
            <mxPoint x="648" y="528" as="targetPoint" />
            <Array as="points">
              <mxPoint x="744" y="527" />
            </Array>
          </mxGeometry>
        </mxCell>
        <mxCell id="1257a543d1cacc4b-7" value="VMware&amp;nbsp;&lt;div&gt;backup&amp;nbsp;&lt;span&gt;proxy&lt;/span&gt;&lt;/div&gt;" style="shadow=0;dashed=0;html=1;strokeColor=none;fillColor=#4495D1;labelPosition=center;verticalLabelPosition=bottom;verticalAlign=top;shape=mxgraph.veeam.2d.proxy;fontSize=14;" parent="1" vertex="1">
          <mxGeometry x="822" y="491" width="46" height="46" as="geometry" />
        </mxCell>
        <mxCell id="1257a543d1cacc4b-16" style="edgeStyle=elbowEdgeStyle;rounded=0;html=1;startSize=10;endSize=10;jettySize=auto;orthogonalLoop=1;fontSize=14;endArrow=none;endFill=0;strokeColor=#808080;elbow=vertical;entryX=0.164;entryY=0.919;entryPerimeter=0;" parent="1" source="1257a543d1cacc4b-8" target="1257a543d1cacc4b-6" edge="1">
          <mxGeometry relative="1" as="geometry">
            <Array as="points">
              <mxPoint x="1150" y="527" />
            </Array>
          </mxGeometry>
        </mxCell>
        <mxCell id="1257a543d1cacc4b-8" value="VMware&amp;nbsp;&lt;div&gt;backup&amp;nbsp;&lt;span&gt;proxy&lt;/span&gt;&lt;/div&gt;" style="shadow=0;dashed=0;html=1;strokeColor=none;fillColor=#4495D1;labelPosition=center;verticalLabelPosition=bottom;verticalAlign=top;shape=mxgraph.veeam.2d.proxy;fontSize=14;" parent="1" vertex="1">
          <mxGeometry x="1012.0000000000002" y="491" width="46" height="46" as="geometry" />
        </mxCell>
        <mxCell id="1257a543d1cacc4b-15" style="rounded=0;html=1;startSize=10;endSize=10;jettySize=auto;orthogonalLoop=1;fontSize=14;endArrow=none;endFill=0;strokeColor=#808080;" parent="1" source="1257a543d1cacc4b-9" target="1257a543d1cacc4b-8" edge="1">
          <mxGeometry relative="1" as="geometry" />
        </mxCell>
        <mxCell id="1257a543d1cacc4b-9" value="WAN" style="shadow=0;dashed=0;html=1;strokeColor=none;fillColor=#4495D1;labelPosition=center;verticalLabelPosition=middle;verticalAlign=middle;shape=mxgraph.veeam.2d.cloud;fontSize=14;align=center;" parent="1" vertex="1">
          <mxGeometry x="922" y="583" width="66" height="46" as="geometry" />
        </mxCell>
        <mxCell id="1257a543d1cacc4b-18" value="Transport&lt;div&gt;service&lt;/div&gt;" style="shadow=0;dashed=0;html=1;strokeColor=none;fillColor=#4495D1;labelPosition=right;verticalLabelPosition=middle;verticalAlign=middle;shape=mxgraph.veeam.2d.data_mover;fontSize=14;align=left;" parent="1" vertex="1">
          <mxGeometry x="312" y="417" width="38" height="38" as="geometry" />
        </mxCell>
        <mxCell id="1257a543d1cacc4b-19" value="Transport&lt;div&gt;service&lt;/div&gt;" style="shadow=0;dashed=0;html=1;strokeColor=none;fillColor=#4495D1;labelPosition=left;verticalLabelPosition=middle;verticalAlign=middle;shape=mxgraph.veeam.2d.data_mover;fontSize=14;align=right;" parent="1" vertex="1">
          <mxGeometry x="792" y="417" width="38" height="38" as="geometry" />
        </mxCell>
        <mxCell id="1257a543d1cacc4b-20" value="Transport&lt;div&gt;service&lt;/div&gt;" style="shadow=0;dashed=0;html=1;strokeColor=none;fillColor=#4495D1;labelPosition=right;verticalLabelPosition=middle;verticalAlign=middle;shape=mxgraph.veeam.2d.data_mover;fontSize=14;align=left;" parent="1" vertex="1">
          <mxGeometry x="1052" y="417" width="38" height="38" as="geometry" />
        </mxCell>
        <mxCell id="1257a543d1cacc4b-31" style="edgeStyle=elbowEdgeStyle;rounded=0;html=1;startSize=10;endSize=10;jettySize=auto;orthogonalLoop=1;fontSize=14;endArrow=none;endFill=0;strokeColor=#808080;elbow=vertical;" parent="1" source="1257a543d1cacc4b-21" target="1257a543d1cacc4b-22" edge="1">
          <mxGeometry relative="1" as="geometry" />
        </mxCell>
        <mxCell id="1257a543d1cacc4b-21" value="" style="shadow=0;dashed=0;html=1;strokeColor=none;fillColor=#4495D1;labelPosition=center;verticalLabelPosition=bottom;verticalAlign=top;shape=mxgraph.veeam.2d.backup_repository_2;fontSize=14;" parent="1" vertex="1">
          <mxGeometry x="269" y="690" width="58" height="50" as="geometry" />
        </mxCell>
        <mxCell id="1257a543d1cacc4b-30" style="edgeStyle=elbowEdgeStyle;rounded=0;html=1;startSize=10;endSize=10;jettySize=auto;orthogonalLoop=1;fontSize=14;endArrow=none;endFill=0;strokeColor=#808080;elbow=vertical;" parent="1" source="1257a543d1cacc4b-22" target="1257a543d1cacc4b-23" edge="1">
          <mxGeometry relative="1" as="geometry" />
        </mxCell>
        <mxCell id="1257a543d1cacc4b-22" value="Source ESX host" style="shadow=0;dashed=0;html=1;strokeColor=none;fillColor=#4495D1;labelPosition=center;verticalLabelPosition=top;verticalAlign=bottom;shape=mxgraph.veeam.2d.vmware_host;fontSize=14;align=center;" parent="1" vertex="1">
          <mxGeometry x="542" y="690" width="124" height="120" as="geometry" />
        </mxCell>
        <mxCell id="1257a543d1cacc4b-27" style="rounded=0;html=1;startSize=10;endSize=10;jettySize=auto;orthogonalLoop=1;fontSize=14;endArrow=none;endFill=0;strokeColor=#808080;" parent="1" source="1257a543d1cacc4b-23" target="1257a543d1cacc4b-9" edge="1">
          <mxGeometry relative="1" as="geometry" />
        </mxCell>
        <mxCell id="1257a543d1cacc4b-23" value="VMware&amp;nbsp;&lt;div&gt;backup&amp;nbsp;&lt;span&gt;proxy&lt;/span&gt;&lt;/div&gt;" style="shadow=0;dashed=0;html=1;strokeColor=none;fillColor=#4495D1;labelPosition=center;verticalLabelPosition=top;verticalAlign=bottom;shape=mxgraph.veeam.2d.proxy;fontSize=14;align=center;" parent="1" vertex="1">
          <mxGeometry x="822" y="690" width="46" height="46" as="geometry" />
        </mxCell>
        <mxCell id="1257a543d1cacc4b-26" style="rounded=0;html=1;startSize=10;endSize=10;jettySize=auto;orthogonalLoop=1;fontSize=14;endArrow=none;endFill=0;strokeColor=#808080;" parent="1" source="1257a543d1cacc4b-24" target="1257a543d1cacc4b-9" edge="1">
          <mxGeometry relative="1" as="geometry" />
        </mxCell>
        <mxCell id="1257a543d1cacc4b-33" style="edgeStyle=elbowEdgeStyle;rounded=0;html=1;startSize=10;endSize=10;jettySize=auto;orthogonalLoop=1;fontSize=14;endArrow=none;endFill=0;strokeColor=#808080;elbow=vertical;" parent="1" source="1257a543d1cacc4b-24" target="1257a543d1cacc4b-25" edge="1">
          <mxGeometry relative="1" as="geometry" />
        </mxCell>
        <mxCell id="1257a543d1cacc4b-24" value="VMware&amp;nbsp;&lt;div&gt;backup&amp;nbsp;&lt;span&gt;proxy&lt;/span&gt;&lt;/div&gt;" style="shadow=0;dashed=0;html=1;strokeColor=none;fillColor=#4495D1;labelPosition=center;verticalLabelPosition=top;verticalAlign=bottom;shape=mxgraph.veeam.2d.proxy;fontSize=14;align=center;" parent="1" vertex="1">
          <mxGeometry x="1012.0000000000002" y="690.0000000000002" width="46" height="46" as="geometry" />
        </mxCell>
        <mxCell id="1257a543d1cacc4b-25" value="Source ESX host" style="shadow=0;dashed=0;html=1;strokeColor=none;fillColor=#4495D1;labelPosition=center;verticalLabelPosition=top;verticalAlign=bottom;shape=mxgraph.veeam.2d.hyper_v_vmware_host;fontSize=14;align=center;" parent="1" vertex="1">
          <mxGeometry x="1241.9999999999998" y="690" width="124" height="120" as="geometry" />
        </mxCell>
        <mxCell id="1257a543d1cacc4b-32" style="edgeStyle=orthogonalEdgeStyle;rounded=0;html=1;startSize=10;endSize=10;jettySize=auto;orthogonalLoop=1;fontSize=14;endArrow=none;endFill=0;strokeColor=#808080;" parent="1" source="1257a543d1cacc4b-28" target="1257a543d1cacc4b-21" edge="1">
          <mxGeometry relative="1" as="geometry">
            <mxPoint x="312" y="843" as="targetPoint" />
            <Array as="points">
              <mxPoint x="469" y="853" />
              <mxPoint x="298" y="853" />
            </Array>
          </mxGeometry>
        </mxCell>
        <mxCell id="1257a543d1cacc4b-37" style="edgeStyle=orthogonalEdgeStyle;rounded=0;html=1;startSize=10;endSize=10;jettySize=auto;orthogonalLoop=1;fontSize=14;endArrow=none;endFill=0;strokeColor=#808080;" parent="1" source="1257a543d1cacc4b-28" target="1257a543d1cacc4b-22" edge="1">
          <mxGeometry relative="1" as="geometry">
            <Array as="points">
              <mxPoint x="469" y="853" />
              <mxPoint x="605" y="853" />
            </Array>
          </mxGeometry>
        </mxCell>
        <mxCell id="1257a543d1cacc4b-38" style="edgeStyle=orthogonalEdgeStyle;rounded=0;html=1;entryX=0.202;entryY=1.004;entryPerimeter=0;startSize=10;endSize=10;jettySize=auto;orthogonalLoop=1;fontSize=14;endArrow=none;endFill=0;strokeColor=#808080;" parent="1" source="1257a543d1cacc4b-28" target="1257a543d1cacc4b-23" edge="1">
          <mxGeometry relative="1" as="geometry">
            <Array as="points">
              <mxPoint x="516" y="853" />
              <mxPoint x="845" y="853" />
              <mxPoint x="845" y="737" />
            </Array>
          </mxGeometry>
        </mxCell>
        <mxCell id="1257a543d1cacc4b-28" value="Veeam backup server" style="shadow=0;dashed=0;html=1;strokeColor=none;fillColor=#4495D1;labelPosition=center;verticalLabelPosition=bottom;verticalAlign=top;shape=mxgraph.veeam.2d.veeam_backup_and_replication_server;fontSize=14;" parent="1" vertex="1">
          <mxGeometry x="432" y="963" width="74" height="72" as="geometry" />
        </mxCell>
        <mxCell id="1257a543d1cacc4b-34" style="edgeStyle=orthogonalEdgeStyle;rounded=0;html=1;startSize=10;endSize=10;jettySize=auto;orthogonalLoop=1;fontSize=14;endArrow=none;endFill=0;strokeColor=#808080;" parent="1" source="1257a543d1cacc4b-29" target="1257a543d1cacc4b-25" edge="1">
          <mxGeometry relative="1" as="geometry">
            <Array as="points">
              <mxPoint x="1449" y="853" />
              <mxPoint x="1305" y="853" />
            </Array>
          </mxGeometry>
        </mxCell>
        <mxCell id="1257a543d1cacc4b-35" style="edgeStyle=orthogonalEdgeStyle;rounded=0;html=1;startSize=10;endSize=10;jettySize=auto;orthogonalLoop=1;fontSize=14;endArrow=none;endFill=0;strokeColor=#808080;" parent="1" source="1257a543d1cacc4b-29" target="1257a543d1cacc4b-24" edge="1">
          <mxGeometry relative="1" as="geometry">
            <Array as="points">
              <mxPoint x="1449" y="853" />
              <mxPoint x="1035" y="853" />
            </Array>
          </mxGeometry>
        </mxCell>
        <mxCell id="1257a543d1cacc4b-29" value="Veeam backup server" style="shadow=0;dashed=0;html=1;strokeColor=none;fillColor=#4495D1;labelPosition=center;verticalLabelPosition=bottom;verticalAlign=top;shape=mxgraph.veeam.2d.veeam_backup_and_replication_server;fontSize=14;" parent="1" vertex="1">
          <mxGeometry x="1411.9999999999995" y="963" width="74" height="72" as="geometry" />
        </mxCell>
        <mxCell id="1257a543d1cacc4b-40" value="Transport&lt;div&gt;service&lt;/div&gt;" style="shadow=0;dashed=0;html=1;strokeColor=none;fillColor=#4495D1;labelPosition=right;verticalLabelPosition=middle;verticalAlign=middle;shape=mxgraph.veeam.2d.data_mover;fontSize=14;align=left;" parent="1" vertex="1">
          <mxGeometry x="312" y="763" width="38" height="38" as="geometry" />
        </mxCell>
        <mxCell id="1257a543d1cacc4b-41" value="Transport&lt;div&gt;service&lt;/div&gt;" style="shadow=0;dashed=0;html=1;strokeColor=none;fillColor=#4495D1;labelPosition=left;verticalLabelPosition=middle;verticalAlign=middle;shape=mxgraph.veeam.2d.data_mover;fontSize=14;align=right;" parent="1" vertex="1">
          <mxGeometry x="792" y="763" width="38" height="38" as="geometry" />
        </mxCell>
        <mxCell id="1257a543d1cacc4b-42" value="Transport&lt;div&gt;service&lt;/div&gt;" style="shadow=0;dashed=0;html=1;strokeColor=none;fillColor=#4495D1;labelPosition=right;verticalLabelPosition=middle;verticalAlign=middle;shape=mxgraph.veeam.2d.data_mover;fontSize=14;align=left;" parent="1" vertex="1">
          <mxGeometry x="1052" y="763" width="38" height="38" as="geometry" />
        </mxCell>
        <mxCell id="1257a543d1cacc4b-49" value="" style="line;strokeWidth=3;html=1;fillColor=none;gradientColor=none;fontSize=14;strokeColor=#808080;" parent="1" vertex="1">
          <mxGeometry x="282" y="342" width="1200" height="10" as="geometry" />
        </mxCell>
        <mxCell id="1257a543d1cacc4b-50" value="" style="line;strokeWidth=3;html=1;fillColor=none;gradientColor=none;fontSize=14;strokeColor=#808080;" parent="1" vertex="1">
          <mxGeometry x="282" y="849" width="1200" height="10" as="geometry" />
        </mxCell>
        <mxCell id="1257a543d1cacc4b-51" style="edgeStyle=orthogonalEdgeStyle;rounded=0;html=1;startSize=10;endSize=10;jettySize=auto;orthogonalLoop=1;fontSize=14;endArrow=none;endFill=0;strokeColor=#808080;" parent="1" source="1257a543d1cacc4b-29" target="1257a543d1cacc4b-50" edge="1">
          <mxGeometry relative="1" as="geometry">
            <mxPoint x="516.3529411764707" y="963" as="targetPoint" />
            <mxPoint x="1449.294117647059" y="963" as="sourcePoint" />
            <Array as="points">
              <mxPoint x="1449" y="853" />
            </Array>
          </mxGeometry>
        </mxCell>
        <mxCell id="1257a543d1cacc4b-52" value="Title" style="text;strokeColor=none;fillColor=none;html=1;fontSize=24;fontStyle=1;verticalAlign=middle;align=center;" parent="1" vertex="1">
          <mxGeometry x="160" y="60" width="1420" height="40" as="geometry" />
        </mxCell>
      </root>
    </mxGraphModel>
  </diagram>
  <diagram id="Y0yIQF-JmJeGfIXuWWWn" name="Page-2">
    <mxGraphModel dx="2489" dy="832" grid="1" gridSize="10" guides="1" tooltips="1" connect="1" arrows="1" fold="1" page="1" pageScale="1" pageWidth="827" pageHeight="1169" math="0" shadow="0">
      <root>
        <mxCell id="5LIB_jOFQ_xeaD-KDqt_-0" />
        <mxCell id="5LIB_jOFQ_xeaD-KDqt_-1" parent="5LIB_jOFQ_xeaD-KDqt_-0" />
        <mxCell id="5LIB_jOFQ_xeaD-KDqt_-2" value="vCenter A" style="rounded=1;whiteSpace=wrap;html=1;" vertex="1" parent="5LIB_jOFQ_xeaD-KDqt_-1">
          <mxGeometry x="140" y="290" width="280" height="60" as="geometry" />
        </mxCell>
        <mxCell id="5LIB_jOFQ_xeaD-KDqt_-3" value="vmdir&lt;br&gt;(local SSO users)" style="shape=cylinder;whiteSpace=wrap;html=1;boundedLbl=1;backgroundOutline=1;" vertex="1" parent="5LIB_jOFQ_xeaD-KDqt_-1">
          <mxGeometry x="90" y="130" width="60" height="80" as="geometry" />
        </mxCell>
        <mxCell id="5LIB_jOFQ_xeaD-KDqt_-4" value="" style="endArrow=none;html=1;" edge="1" parent="5LIB_jOFQ_xeaD-KDqt_-1" target="5LIB_jOFQ_xeaD-KDqt_-3">
          <mxGeometry width="50" height="50" relative="1" as="geometry">
            <mxPoint x="220" y="290" as="sourcePoint" />
            <mxPoint x="350" y="320" as="targetPoint" />
            <Array as="points">
              <mxPoint x="160" y="230" />
            </Array>
          </mxGeometry>
        </mxCell>
        <mxCell id="5LIB_jOFQ_xeaD-KDqt_-5" value="administrator@vsphere.local" style="shape=umlActor;verticalLabelPosition=bottom;verticalAlign=top;html=1;outlineConnect=0;" vertex="1" parent="5LIB_jOFQ_xeaD-KDqt_-1">
          <mxGeometry x="220" y="130" width="30" height="60" as="geometry" />
        </mxCell>
        <mxCell id="5LIB_jOFQ_xeaD-KDqt_-6" value="ali@vsphere.local&lt;br&gt;" style="shape=umlActor;verticalLabelPosition=bottom;verticalAlign=top;html=1;outlineConnect=0;" vertex="1" parent="5LIB_jOFQ_xeaD-KDqt_-1">
          <mxGeometry x="220" y="50" width="30" height="60" as="geometry" />
        </mxCell>
        <mxCell id="5LIB_jOFQ_xeaD-KDqt_-7" value="OpenLDAP" style="shape=cylinder;whiteSpace=wrap;html=1;boundedLbl=1;backgroundOutline=1;" vertex="1" parent="5LIB_jOFQ_xeaD-KDqt_-1">
          <mxGeometry x="400" y="90" width="60" height="80" as="geometry" />
        </mxCell>
        <mxCell id="5LIB_jOFQ_xeaD-KDqt_-8" value="Active Directory" style="shape=cylinder;whiteSpace=wrap;html=1;boundedLbl=1;backgroundOutline=1;" vertex="1" parent="5LIB_jOFQ_xeaD-KDqt_-1">
          <mxGeometry x="500" y="90" width="60" height="80" as="geometry" />
        </mxCell>
        <mxCell id="5LIB_jOFQ_xeaD-KDqt_-9" value="Actor" style="shape=umlActor;verticalLabelPosition=bottom;verticalAlign=top;html=1;outlineConnect=0;" vertex="1" parent="5LIB_jOFQ_xeaD-KDqt_-1">
          <mxGeometry x="410" y="60" width="20" height="30" as="geometry" />
        </mxCell>
        <mxCell id="5LIB_jOFQ_xeaD-KDqt_-10" value="Actor" style="shape=umlActor;verticalLabelPosition=bottom;verticalAlign=top;html=1;outlineConnect=0;" vertex="1" parent="5LIB_jOFQ_xeaD-KDqt_-1">
          <mxGeometry x="440" y="60" width="20" height="30" as="geometry" />
        </mxCell>
        <mxCell id="5LIB_jOFQ_xeaD-KDqt_-11" value="Actor" style="shape=umlActor;verticalLabelPosition=bottom;verticalAlign=top;html=1;outlineConnect=0;" vertex="1" parent="5LIB_jOFQ_xeaD-KDqt_-1">
          <mxGeometry x="510" y="60" width="20" height="30" as="geometry" />
        </mxCell>
        <mxCell id="5LIB_jOFQ_xeaD-KDqt_-12" value="Actor" style="shape=umlActor;verticalLabelPosition=bottom;verticalAlign=top;html=1;outlineConnect=0;" vertex="1" parent="5LIB_jOFQ_xeaD-KDqt_-1">
          <mxGeometry x="540" y="60" width="20" height="30" as="geometry" />
        </mxCell>
        <mxCell id="5LIB_jOFQ_xeaD-KDqt_-13" value="" style="endArrow=none;html=1;" edge="1" parent="5LIB_jOFQ_xeaD-KDqt_-1" source="5LIB_jOFQ_xeaD-KDqt_-2" target="5LIB_jOFQ_xeaD-KDqt_-7">
          <mxGeometry width="50" height="50" relative="1" as="geometry">
            <mxPoint x="340" y="250" as="sourcePoint" />
            <mxPoint x="390" y="200" as="targetPoint" />
          </mxGeometry>
        </mxCell>
        <mxCell id="5LIB_jOFQ_xeaD-KDqt_-14" value="" style="endArrow=none;html=1;exitX=0.738;exitY=-0.068;exitDx=0;exitDy=0;exitPerimeter=0;" edge="1" parent="5LIB_jOFQ_xeaD-KDqt_-1" source="5LIB_jOFQ_xeaD-KDqt_-2" target="5LIB_jOFQ_xeaD-KDqt_-8">
          <mxGeometry width="50" height="50" relative="1" as="geometry">
            <mxPoint x="313.68421052631584" y="300" as="sourcePoint" />
            <mxPoint x="410" y="178" as="targetPoint" />
          </mxGeometry>
        </mxCell>
        <mxCell id="5LIB_jOFQ_xeaD-KDqt_-15" value="vCenter SSO ID SOURCES" style="rounded=1;whiteSpace=wrap;html=1;" vertex="1" parent="5LIB_jOFQ_xeaD-KDqt_-1">
          <mxGeometry x="170" y="280" width="240" height="20" as="geometry" />
        </mxCell>
        <mxCell id="5LIB_jOFQ_xeaD-KDqt_-16" value="vCenter B" style="rounded=1;whiteSpace=wrap;html=1;" vertex="1" parent="5LIB_jOFQ_xeaD-KDqt_-1">
          <mxGeometry x="134" y="470" width="280" height="60" as="geometry" />
        </mxCell>
        <mxCell id="5LIB_jOFQ_xeaD-KDqt_-17" value="vmdir&lt;br&gt;(local SSO users)" style="shape=cylinder;whiteSpace=wrap;html=1;boundedLbl=1;backgroundOutline=1;" vertex="1" parent="5LIB_jOFQ_xeaD-KDqt_-1">
          <mxGeometry x="50" y="460" width="60" height="80" as="geometry" />
        </mxCell>
        <mxCell id="5LIB_jOFQ_xeaD-KDqt_-18" value="" style="endArrow=none;html=1;entryX=0.007;entryY=0.577;entryDx=0;entryDy=0;entryPerimeter=0;" edge="1" parent="5LIB_jOFQ_xeaD-KDqt_-1" target="5LIB_jOFQ_xeaD-KDqt_-16">
          <mxGeometry width="50" height="50" relative="1" as="geometry">
            <mxPoint x="110" y="510" as="sourcePoint" />
            <mxPoint x="120" y="510" as="targetPoint" />
          </mxGeometry>
        </mxCell>
        <mxCell id="5LIB_jOFQ_xeaD-KDqt_-19" value="" style="shape=flexArrow;endArrow=classic;startArrow=classic;html=1;" edge="1" parent="5LIB_jOFQ_xeaD-KDqt_-1" source="5LIB_jOFQ_xeaD-KDqt_-20" target="5LIB_jOFQ_xeaD-KDqt_-3">
          <mxGeometry width="50" height="50" relative="1" as="geometry">
            <mxPoint x="40" y="360" as="sourcePoint" />
            <mxPoint x="90" y="310" as="targetPoint" />
          </mxGeometry>
        </mxCell>
        <mxCell id="5LIB_jOFQ_xeaD-KDqt_-20" value="bi-direactional directory replication" style="text;html=1;strokeColor=none;fillColor=none;align=center;verticalAlign=middle;whiteSpace=wrap;rounded=0;fontStyle=1" vertex="1" parent="5LIB_jOFQ_xeaD-KDqt_-1">
          <mxGeometry x="40" y="310" width="40" height="20" as="geometry" />
        </mxCell>
        <mxCell id="5LIB_jOFQ_xeaD-KDqt_-21" value="" style="shape=flexArrow;endArrow=classic;startArrow=classic;html=1;" edge="1" parent="5LIB_jOFQ_xeaD-KDqt_-1" source="5LIB_jOFQ_xeaD-KDqt_-17" target="5LIB_jOFQ_xeaD-KDqt_-20">
          <mxGeometry width="50" height="50" relative="1" as="geometry">
            <mxPoint x="84.84848484848499" y="460" as="sourcePoint" />
            <mxPoint x="115.15151515151524" y="210" as="targetPoint" />
          </mxGeometry>
        </mxCell>
        <mxCell id="5LIB_jOFQ_xeaD-KDqt_-23" value="administrator@vsphere.local" style="shape=umlActor;verticalLabelPosition=bottom;verticalAlign=top;html=1;outlineConnect=0;" vertex="1" parent="5LIB_jOFQ_xeaD-KDqt_-1">
          <mxGeometry x="50" y="560" width="30" height="60" as="geometry" />
        </mxCell>
        <mxCell id="5LIB_jOFQ_xeaD-KDqt_-24" value="ali@vsphere.local&lt;br&gt;" style="shape=umlActor;verticalLabelPosition=bottom;verticalAlign=top;html=1;outlineConnect=0;" vertex="1" parent="5LIB_jOFQ_xeaD-KDqt_-1">
          <mxGeometry x="120" y="570" width="30" height="60" as="geometry" />
        </mxCell>
      </root>
    </mxGraphModel>
  </diagram>
  <diagram id="Z0reuoyKNyZzJbR8RfLl" name="Page-3">
    <mxGraphModel dx="1662" dy="832" grid="1" gridSize="10" guides="1" tooltips="1" connect="1" arrows="1" fold="1" page="1" pageScale="1" pageWidth="827" pageHeight="1169" math="0" shadow="0">
      <root>
        <mxCell id="GZdcZEgX0X8Ufp5g_GeR-0" />
        <mxCell id="GZdcZEgX0X8Ufp5g_GeR-1" parent="GZdcZEgX0X8Ufp5g_GeR-0" />
        <mxCell id="GZdcZEgX0X8Ufp5g_GeR-2" value="vCenter Appliance with embedded PSC" style="rounded=1;whiteSpace=wrap;html=1;" vertex="1" parent="GZdcZEgX0X8Ufp5g_GeR-1">
          <mxGeometry x="60" y="50" width="300" height="220" as="geometry" />
        </mxCell>
        <mxCell id="GZdcZEgX0X8Ufp5g_GeR-3" value="Platform Services Controller (PSC)" style="rounded=1;whiteSpace=wrap;html=1;" vertex="1" parent="GZdcZEgX0X8Ufp5g_GeR-1">
          <mxGeometry x="70" y="60" width="200" height="60" as="geometry" />
        </mxCell>
        <mxCell id="GZdcZEgX0X8Ufp5g_GeR-4" value="SSO" style="rounded=1;whiteSpace=wrap;html=1;" vertex="1" parent="GZdcZEgX0X8Ufp5g_GeR-1">
          <mxGeometry x="70" y="50" width="60" height="20" as="geometry" />
        </mxCell>
        <mxCell id="GZdcZEgX0X8Ufp5g_GeR-5" value="licensing" style="rounded=1;whiteSpace=wrap;html=1;" vertex="1" parent="GZdcZEgX0X8Ufp5g_GeR-1">
          <mxGeometry x="130" y="50" width="60" height="20" as="geometry" />
        </mxCell>
        <mxCell id="GZdcZEgX0X8Ufp5g_GeR-7" value="CA" style="rounded=1;whiteSpace=wrap;html=1;" vertex="1" parent="GZdcZEgX0X8Ufp5g_GeR-1">
          <mxGeometry x="190" y="50" width="60" height="20" as="geometry" />
        </mxCell>
        <mxCell id="GZdcZEgX0X8Ufp5g_GeR-8" value="vCenter Appliance with embedded PSC" style="rounded=1;whiteSpace=wrap;html=1;" vertex="1" parent="GZdcZEgX0X8Ufp5g_GeR-1">
          <mxGeometry x="60" y="400" width="300" height="220" as="geometry" />
        </mxCell>
        <mxCell id="GZdcZEgX0X8Ufp5g_GeR-9" value="Platform Services Controller (PSC)" style="rounded=1;whiteSpace=wrap;html=1;" vertex="1" parent="GZdcZEgX0X8Ufp5g_GeR-1">
          <mxGeometry x="70" y="410" width="200" height="60" as="geometry" />
        </mxCell>
        <mxCell id="GZdcZEgX0X8Ufp5g_GeR-10" value="SSO" style="rounded=1;whiteSpace=wrap;html=1;" vertex="1" parent="GZdcZEgX0X8Ufp5g_GeR-1">
          <mxGeometry x="70" y="400" width="60" height="20" as="geometry" />
        </mxCell>
        <mxCell id="GZdcZEgX0X8Ufp5g_GeR-11" value="licensing" style="rounded=1;whiteSpace=wrap;html=1;" vertex="1" parent="GZdcZEgX0X8Ufp5g_GeR-1">
          <mxGeometry x="130" y="400" width="60" height="20" as="geometry" />
        </mxCell>
        <mxCell id="GZdcZEgX0X8Ufp5g_GeR-12" value="CA" style="rounded=1;whiteSpace=wrap;html=1;" vertex="1" parent="GZdcZEgX0X8Ufp5g_GeR-1">
          <mxGeometry x="190" y="400" width="60" height="20" as="geometry" />
        </mxCell>
        <mxCell id="GZdcZEgX0X8Ufp5g_GeR-13" value="" style="shape=cylinder;whiteSpace=wrap;html=1;boundedLbl=1;backgroundOutline=1;" vertex="1" parent="GZdcZEgX0X8Ufp5g_GeR-1">
          <mxGeometry x="80" y="380" width="20" height="30" as="geometry" />
        </mxCell>
        <mxCell id="GZdcZEgX0X8Ufp5g_GeR-14" value="" style="shape=cylinder;whiteSpace=wrap;html=1;boundedLbl=1;backgroundOutline=1;" vertex="1" parent="GZdcZEgX0X8Ufp5g_GeR-1">
          <mxGeometry x="80" y="30" width="20" height="30" as="geometry" />
        </mxCell>
      </root>
    </mxGraphModel>
  </diagram>
  <diagram id="PvuahrY8PORUteh3usWa" name="Page-4">
    <mxGraphModel dx="981" dy="574" grid="1" gridSize="10" guides="1" tooltips="1" connect="1" arrows="1" fold="1" page="1" pageScale="1" pageWidth="827" pageHeight="1169" math="0" shadow="0">
      <root>
        <mxCell id="ZwBj7HcTnx1XXEPzA8zy-0" />
        <mxCell id="ZwBj7HcTnx1XXEPzA8zy-1" parent="ZwBj7HcTnx1XXEPzA8zy-0" />
        <mxCell id="ZwBj7HcTnx1XXEPzA8zy-4" value="" style="rounded=1;whiteSpace=wrap;html=1;" vertex="1" parent="ZwBj7HcTnx1XXEPzA8zy-1">
          <mxGeometry x="60" y="290" width="750" height="370" as="geometry" />
        </mxCell>
        <mxCell id="ZwBj7HcTnx1XXEPzA8zy-16" value="" style="ellipse;whiteSpace=wrap;html=1;" vertex="1" parent="ZwBj7HcTnx1XXEPzA8zy-1">
          <mxGeometry x="60" y="435" width="230" height="65" as="geometry" />
        </mxCell>
        <mxCell id="ZwBj7HcTnx1XXEPzA8zy-2" value="VM1" style="rounded=1;whiteSpace=wrap;html=1;" vertex="1" parent="ZwBj7HcTnx1XXEPzA8zy-1">
          <mxGeometry x="160" y="320" width="120" height="60" as="geometry" />
        </mxCell>
        <mxCell id="ZwBj7HcTnx1XXEPzA8zy-3" value="vNIC" style="rounded=1;whiteSpace=wrap;html=1;" vertex="1" parent="ZwBj7HcTnx1XXEPzA8zy-1">
          <mxGeometry x="195" y="380" width="50" height="20" as="geometry" />
        </mxCell>
        <mxCell id="ZwBj7HcTnx1XXEPzA8zy-5" value="pNIC2" style="rounded=1;whiteSpace=wrap;html=1;" vertex="1" parent="ZwBj7HcTnx1XXEPzA8zy-1">
          <mxGeometry x="630" y="660" width="50" height="20" as="geometry" />
        </mxCell>
        <mxCell id="ZwBj7HcTnx1XXEPzA8zy-7" value="L2 BRIDGE" style="text;html=1;strokeColor=none;fillColor=none;align=center;verticalAlign=middle;whiteSpace=wrap;rounded=0;" vertex="1" parent="ZwBj7HcTnx1XXEPzA8zy-1">
          <mxGeometry x="70" y="660" width="40" height="20" as="geometry" />
        </mxCell>
        <mxCell id="ZwBj7HcTnx1XXEPzA8zy-8" value="Standard vSwitch1" style="rounded=1;whiteSpace=wrap;html=1;" vertex="1" parent="ZwBj7HcTnx1XXEPzA8zy-1">
          <mxGeometry x="87.5" y="480" width="462.5" height="60" as="geometry" />
        </mxCell>
        <mxCell id="ZwBj7HcTnx1XXEPzA8zy-10" value="uplink" style="text;html=1;strokeColor=none;fillColor=none;align=center;verticalAlign=middle;whiteSpace=wrap;rounded=0;" vertex="1" parent="ZwBj7HcTnx1XXEPzA8zy-1">
          <mxGeometry x="195" y="585" width="40" height="20" as="geometry" />
        </mxCell>
        <mxCell id="ZwBj7HcTnx1XXEPzA8zy-11" value="" style="rounded=1;whiteSpace=wrap;html=1;" vertex="1" parent="ZwBj7HcTnx1XXEPzA8zy-1">
          <mxGeometry x="180" y="465" width="30" height="20" as="geometry" />
        </mxCell>
        <mxCell id="ZwBj7HcTnx1XXEPzA8zy-17" value="Port Group &quot;Prod Net&quot;" style="text;html=1;strokeColor=none;fillColor=none;align=center;verticalAlign=middle;whiteSpace=wrap;rounded=0;" vertex="1" parent="ZwBj7HcTnx1XXEPzA8zy-1">
          <mxGeometry x="110" y="445" width="125" height="20" as="geometry" />
        </mxCell>
        <mxCell id="ZwBj7HcTnx1XXEPzA8zy-18" value="" style="ellipse;whiteSpace=wrap;html=1;" vertex="1" parent="ZwBj7HcTnx1XXEPzA8zy-1">
          <mxGeometry x="299" y="435" width="230" height="65" as="geometry" />
        </mxCell>
        <mxCell id="ZwBj7HcTnx1XXEPzA8zy-19" value="&quot;Test Net&quot;" style="text;html=1;strokeColor=none;fillColor=none;align=center;verticalAlign=middle;whiteSpace=wrap;rounded=0;" vertex="1" parent="ZwBj7HcTnx1XXEPzA8zy-1">
          <mxGeometry x="394" y="445" width="66" height="20" as="geometry" />
        </mxCell>
        <mxCell id="ZwBj7HcTnx1XXEPzA8zy-20" value="" style="endArrow=none;html=1;exitX=0.694;exitY=1.2;exitDx=0;exitDy=0;exitPerimeter=0;" edge="1" parent="ZwBj7HcTnx1XXEPzA8zy-1" source="ZwBj7HcTnx1XXEPzA8zy-17">
          <mxGeometry width="50" height="50" relative="1" as="geometry">
            <mxPoint x="170" y="450" as="sourcePoint" />
            <mxPoint x="220" y="400" as="targetPoint" />
          </mxGeometry>
        </mxCell>
        <mxCell id="ZwBj7HcTnx1XXEPzA8zy-21" value="" style="endArrow=none;html=1;" edge="1" parent="ZwBj7HcTnx1XXEPzA8zy-1">
          <mxGeometry width="50" height="50" relative="1" as="geometry">
            <mxPoint x="160" y="720" as="sourcePoint" />
            <mxPoint x="160" y="680" as="targetPoint" />
          </mxGeometry>
        </mxCell>
        <mxCell id="ZwBj7HcTnx1XXEPzA8zy-22" value="" style="endArrow=none;html=1;" edge="1" parent="ZwBj7HcTnx1XXEPzA8zy-1">
          <mxGeometry width="50" height="50" relative="1" as="geometry">
            <mxPoint x="70" y="720" as="sourcePoint" />
            <mxPoint x="630" y="720.5714285714286" as="targetPoint" />
          </mxGeometry>
        </mxCell>
        <mxCell id="ZwBj7HcTnx1XXEPzA8zy-24" value="00:AA:00:01:c1:1a" style="text;html=1;strokeColor=none;fillColor=none;align=center;verticalAlign=middle;whiteSpace=wrap;rounded=0;" vertex="1" parent="ZwBj7HcTnx1XXEPzA8zy-1">
          <mxGeometry x="220" y="660" width="40" height="20" as="geometry" />
        </mxCell>
        <mxCell id="ZwBj7HcTnx1XXEPzA8zy-25" value="vMAC&lt;br&gt;00:50:56:00:44:8a" style="text;html=1;strokeColor=none;fillColor=none;align=center;verticalAlign=middle;whiteSpace=wrap;rounded=0;" vertex="1" parent="ZwBj7HcTnx1XXEPzA8zy-1">
          <mxGeometry x="245" y="380" width="140" height="20" as="geometry" />
        </mxCell>
        <mxCell id="ZwBj7HcTnx1XXEPzA8zy-26" value="vm.vmx&lt;br&gt;net1=&quot;prod net&quot;" style="text;html=1;strokeColor=none;fillColor=none;align=center;verticalAlign=middle;whiteSpace=wrap;rounded=0;" vertex="1" parent="ZwBj7HcTnx1XXEPzA8zy-1">
          <mxGeometry x="280" y="310" width="90" height="20" as="geometry" />
        </mxCell>
        <mxCell id="ZwBj7HcTnx1XXEPzA8zy-27" value="ETHERNET FRAME (L2)" style="shape=process;whiteSpace=wrap;html=1;backgroundOutline=1;fillColor=#fff2cc;strokeColor=#d6b656;" vertex="1" parent="ZwBj7HcTnx1XXEPzA8zy-1">
          <mxGeometry x="195" y="730" width="196" height="20" as="geometry" />
        </mxCell>
        <mxCell id="ZwBj7HcTnx1XXEPzA8zy-28" value="vMAC" style="text;html=1;strokeColor=none;fillColor=none;align=center;verticalAlign=middle;whiteSpace=wrap;rounded=0;" vertex="1" parent="ZwBj7HcTnx1XXEPzA8zy-1">
          <mxGeometry x="140" y="730" width="40" height="20" as="geometry" />
        </mxCell>
        <mxCell id="ZwBj7HcTnx1XXEPzA8zy-30" value="ESXi Kernel uses a pNIC bridge driver" style="rounded=1;whiteSpace=wrap;html=1;" vertex="1" parent="ZwBj7HcTnx1XXEPzA8zy-1">
          <mxGeometry x="112.5" y="605" width="120" height="30" as="geometry" />
        </mxCell>
        <mxCell id="ZwBj7HcTnx1XXEPzA8zy-31" value="" style="endArrow=none;html=1;entryX=0.34;entryY=-0.093;entryDx=0;entryDy=0;entryPerimeter=0;exitX=0.144;exitY=0.979;exitDx=0;exitDy=0;exitPerimeter=0;" edge="1" parent="ZwBj7HcTnx1XXEPzA8zy-1" source="ZwBj7HcTnx1XXEPzA8zy-8" target="ZwBj7HcTnx1XXEPzA8zy-30">
          <mxGeometry width="50" height="50" relative="1" as="geometry">
            <mxPoint x="258.1100000000001" y="539.88" as="sourcePoint" />
            <mxPoint x="147" y="658.1399999999999" as="targetPoint" />
          </mxGeometry>
        </mxCell>
        <mxCell id="ZwBj7HcTnx1XXEPzA8zy-32" value="ESXi kernel itself" style="rounded=1;whiteSpace=wrap;html=1;fillColor=#f8cecc;strokeColor=#b85450;" vertex="1" parent="ZwBj7HcTnx1XXEPzA8zy-1">
          <mxGeometry x="320" y="550" width="120" height="35" as="geometry" />
        </mxCell>
        <mxCell id="ZwBj7HcTnx1XXEPzA8zy-33" value="vpxa" style="rounded=1;whiteSpace=wrap;html=1;" vertex="1" parent="ZwBj7HcTnx1XXEPzA8zy-1">
          <mxGeometry x="320" y="605" width="120" height="20" as="geometry" />
        </mxCell>
        <mxCell id="ZwBj7HcTnx1XXEPzA8zy-34" value="hostd" style="rounded=1;whiteSpace=wrap;html=1;" vertex="1" parent="ZwBj7HcTnx1XXEPzA8zy-1">
          <mxGeometry x="320" y="585" width="120" height="20" as="geometry" />
        </mxCell>
        <mxCell id="ZwBj7HcTnx1XXEPzA8zy-35" value="vmkernel port&lt;br&gt;vmk0&lt;br&gt;192.168.1.44" style="rounded=1;whiteSpace=wrap;html=1;" vertex="1" parent="ZwBj7HcTnx1XXEPzA8zy-1">
          <mxGeometry x="330" y="520" width="90" height="45" as="geometry" />
        </mxCell>
        <mxCell id="ZwBj7HcTnx1XXEPzA8zy-36" value="VM2" style="rounded=1;whiteSpace=wrap;html=1;" vertex="1" parent="ZwBj7HcTnx1XXEPzA8zy-1">
          <mxGeometry x="414" y="320" width="120" height="60" as="geometry" />
        </mxCell>
        <mxCell id="ZwBj7HcTnx1XXEPzA8zy-37" value="vNIC" style="rounded=1;whiteSpace=wrap;html=1;" vertex="1" parent="ZwBj7HcTnx1XXEPzA8zy-1">
          <mxGeometry x="440" y="380" width="50" height="20" as="geometry" />
        </mxCell>
        <mxCell id="ZwBj7HcTnx1XXEPzA8zy-38" value="" style="rounded=1;whiteSpace=wrap;html=1;" vertex="1" parent="ZwBj7HcTnx1XXEPzA8zy-1">
          <mxGeometry x="459" y="465" width="30" height="20" as="geometry" />
        </mxCell>
        <mxCell id="ZwBj7HcTnx1XXEPzA8zy-40" value="" style="endArrow=none;html=1;exitX=0.5;exitY=0;exitDx=0;exitDy=0;" edge="1" parent="ZwBj7HcTnx1XXEPzA8zy-1" source="ZwBj7HcTnx1XXEPzA8zy-38">
          <mxGeometry width="50" height="50" relative="1" as="geometry">
            <mxPoint x="440" y="465" as="sourcePoint" />
            <mxPoint x="463.25" y="396" as="targetPoint" />
          </mxGeometry>
        </mxCell>
        <mxCell id="ZwBj7HcTnx1XXEPzA8zy-41" value="vSwitch2" style="rounded=1;whiteSpace=wrap;html=1;" vertex="1" parent="ZwBj7HcTnx1XXEPzA8zy-1">
          <mxGeometry x="580" y="480" width="120" height="60" as="geometry" />
        </mxCell>
        <mxCell id="ZwBj7HcTnx1XXEPzA8zy-42" value="VM3" style="rounded=1;whiteSpace=wrap;html=1;" vertex="1" parent="ZwBj7HcTnx1XXEPzA8zy-1">
          <mxGeometry x="560" y="320" width="120" height="60" as="geometry" />
        </mxCell>
        <mxCell id="ZwBj7HcTnx1XXEPzA8zy-43" value="VM4" style="rounded=1;whiteSpace=wrap;html=1;" vertex="1" parent="ZwBj7HcTnx1XXEPzA8zy-1">
          <mxGeometry x="680" y="320" width="120" height="60" as="geometry" />
        </mxCell>
        <mxCell id="ZwBj7HcTnx1XXEPzA8zy-44" value="" style="endArrow=none;html=1;entryX=0.5;entryY=1;entryDx=0;entryDy=0;" edge="1" parent="ZwBj7HcTnx1XXEPzA8zy-1" source="ZwBj7HcTnx1XXEPzA8zy-41" target="ZwBj7HcTnx1XXEPzA8zy-42">
          <mxGeometry width="50" height="50" relative="1" as="geometry">
            <mxPoint x="460" y="520" as="sourcePoint" />
            <mxPoint x="510" y="470" as="targetPoint" />
          </mxGeometry>
        </mxCell>
        <mxCell id="ZwBj7HcTnx1XXEPzA8zy-45" value="" style="endArrow=none;html=1;exitX=0.543;exitY=-0.107;exitDx=0;exitDy=0;exitPerimeter=0;" edge="1" parent="ZwBj7HcTnx1XXEPzA8zy-1" source="ZwBj7HcTnx1XXEPzA8zy-41" target="ZwBj7HcTnx1XXEPzA8zy-43">
          <mxGeometry width="50" height="50" relative="1" as="geometry">
            <mxPoint x="645.3846153846152" y="490" as="sourcePoint" />
            <mxPoint x="630" y="390" as="targetPoint" />
          </mxGeometry>
        </mxCell>
        <mxCell id="ZwBj7HcTnx1XXEPzA8zy-46" value="pNIC1" style="rounded=1;whiteSpace=wrap;html=1;" vertex="1" parent="ZwBj7HcTnx1XXEPzA8zy-1">
          <mxGeometry x="140" y="670" width="50" height="20" as="geometry" />
        </mxCell>
        <mxCell id="ZwBj7HcTnx1XXEPzA8zy-47" value="" style="endArrow=none;html=1;exitX=0.792;exitY=1.016;exitDx=0;exitDy=0;exitPerimeter=0;" edge="1" parent="ZwBj7HcTnx1XXEPzA8zy-1" source="ZwBj7HcTnx1XXEPzA8zy-4">
          <mxGeometry width="50" height="50" relative="1" as="geometry">
            <mxPoint x="580" y="590" as="sourcePoint" />
            <mxPoint x="630" y="540" as="targetPoint" />
          </mxGeometry>
        </mxCell>
      </root>
    </mxGraphModel>
  </diagram>
  <diagram id="TUlDWvlPTixBWdRhVLbX" name="Page-5">
    <mxGraphModel dx="1422" dy="832" grid="1" gridSize="10" guides="1" tooltips="1" connect="1" arrows="1" fold="1" page="1" pageScale="1" pageWidth="827" pageHeight="1169" math="0" shadow="0">
      <root>
        <mxCell id="bn5VopXkFzEddgKYNh1q-0" />
        <mxCell id="bn5VopXkFzEddgKYNh1q-1" parent="bn5VopXkFzEddgKYNh1q-0" />
        <mxCell id="bn5VopXkFzEddgKYNh1q-2" value="" style="rounded=1;whiteSpace=wrap;html=1;" vertex="1" parent="bn5VopXkFzEddgKYNh1q-1">
          <mxGeometry x="110" y="555" width="650" height="60" as="geometry" />
        </mxCell>
        <mxCell id="bn5VopXkFzEddgKYNh1q-3" value="CISCO SWITCH" style="text;html=1;strokeColor=none;fillColor=none;align=center;verticalAlign=middle;whiteSpace=wrap;rounded=0;" vertex="1" parent="bn5VopXkFzEddgKYNh1q-1">
          <mxGeometry x="120" y="640" width="40" height="20" as="geometry" />
        </mxCell>
        <mxCell id="bn5VopXkFzEddgKYNh1q-4" value="1" style="rounded=1;whiteSpace=wrap;html=1;fillColor=#f8cecc;strokeColor=#b85450;" vertex="1" parent="bn5VopXkFzEddgKYNh1q-1">
          <mxGeometry x="140" y="567" width="40" height="35" as="geometry" />
        </mxCell>
        <mxCell id="bn5VopXkFzEddgKYNh1q-5" value="2" style="rounded=1;whiteSpace=wrap;html=1;fillColor=#f8cecc;strokeColor=#b85450;" vertex="1" parent="bn5VopXkFzEddgKYNh1q-1">
          <mxGeometry x="190" y="567" width="40" height="35" as="geometry" />
        </mxCell>
        <mxCell id="bn5VopXkFzEddgKYNh1q-6" value="3" style="rounded=1;whiteSpace=wrap;html=1;fillColor=#d5e8d4;strokeColor=#82b366;" vertex="1" parent="bn5VopXkFzEddgKYNh1q-1">
          <mxGeometry x="240" y="567" width="40" height="35" as="geometry" />
        </mxCell>
        <mxCell id="bn5VopXkFzEddgKYNh1q-7" value="4" style="rounded=1;whiteSpace=wrap;html=1;fillColor=#d5e8d4;strokeColor=#82b366;" vertex="1" parent="bn5VopXkFzEddgKYNh1q-1">
          <mxGeometry x="290" y="567.5" width="40" height="35" as="geometry" />
        </mxCell>
        <mxCell id="bn5VopXkFzEddgKYNh1q-8" value="5" style="rounded=1;whiteSpace=wrap;html=1;" vertex="1" parent="bn5VopXkFzEddgKYNh1q-1">
          <mxGeometry x="340" y="566.5" width="40" height="35" as="geometry" />
        </mxCell>
        <mxCell id="bn5VopXkFzEddgKYNh1q-9" value="6" style="rounded=1;whiteSpace=wrap;html=1;" vertex="1" parent="bn5VopXkFzEddgKYNh1q-1">
          <mxGeometry x="390" y="566.5" width="40" height="35" as="geometry" />
        </mxCell>
        <mxCell id="bn5VopXkFzEddgKYNh1q-10" value="7" style="rounded=1;whiteSpace=wrap;html=1;" vertex="1" parent="bn5VopXkFzEddgKYNh1q-1">
          <mxGeometry x="440" y="566.5" width="40" height="35" as="geometry" />
        </mxCell>
        <mxCell id="bn5VopXkFzEddgKYNh1q-11" value="8" style="rounded=1;whiteSpace=wrap;html=1;" vertex="1" parent="bn5VopXkFzEddgKYNh1q-1">
          <mxGeometry x="490" y="567" width="40" height="35" as="geometry" />
        </mxCell>
        <mxCell id="bn5VopXkFzEddgKYNh1q-12" value="PC1" style="whiteSpace=wrap;html=1;aspect=fixed;" vertex="1" parent="bn5VopXkFzEddgKYNh1q-1">
          <mxGeometry x="70" y="260" width="80" height="80" as="geometry" />
        </mxCell>
        <mxCell id="bn5VopXkFzEddgKYNh1q-13" value="" style="endArrow=none;html=1;exitX=0.5;exitY=1;exitDx=0;exitDy=0;entryX=0.5;entryY=0;entryDx=0;entryDy=0;" edge="1" parent="bn5VopXkFzEddgKYNh1q-1" source="bn5VopXkFzEddgKYNh1q-12" target="bn5VopXkFzEddgKYNh1q-4">
          <mxGeometry width="50" height="50" relative="1" as="geometry">
            <mxPoint x="390" y="450" as="sourcePoint" />
            <mxPoint x="440" y="400" as="targetPoint" />
          </mxGeometry>
        </mxCell>
        <mxCell id="bn5VopXkFzEddgKYNh1q-14" value="Port1: VLAN 101&lt;br&gt;Port2: VLAN 101&lt;br&gt;Port3: VLAN 102&lt;br&gt;&lt;br&gt;Port5: TRUNK PORT&lt;br&gt;&lt;br&gt;Port8: TRUNK PORT (multiple VLANs_" style="text;html=1;strokeColor=none;fillColor=none;align=center;verticalAlign=middle;whiteSpace=wrap;rounded=0;" vertex="1" parent="bn5VopXkFzEddgKYNh1q-1">
          <mxGeometry x="130" y="690" width="270" height="20" as="geometry" />
        </mxCell>
        <mxCell id="bn5VopXkFzEddgKYNh1q-15" value="PC2" style="whiteSpace=wrap;html=1;aspect=fixed;" vertex="1" parent="bn5VopXkFzEddgKYNh1q-1">
          <mxGeometry x="180" y="260" width="80" height="80" as="geometry" />
        </mxCell>
        <mxCell id="bn5VopXkFzEddgKYNh1q-16" value="" style="endArrow=none;html=1;exitX=0.413;exitY=0.95;exitDx=0;exitDy=0;exitPerimeter=0;" edge="1" parent="bn5VopXkFzEddgKYNh1q-1" source="bn5VopXkFzEddgKYNh1q-15" target="bn5VopXkFzEddgKYNh1q-5">
          <mxGeometry width="50" height="50" relative="1" as="geometry">
            <mxPoint x="120" y="350" as="sourcePoint" />
            <mxPoint x="170" y="577" as="targetPoint" />
          </mxGeometry>
        </mxCell>
        <mxCell id="bn5VopXkFzEddgKYNh1q-17" value="PC3" style="whiteSpace=wrap;html=1;aspect=fixed;" vertex="1" parent="bn5VopXkFzEddgKYNh1q-1">
          <mxGeometry x="280" y="260" width="80" height="80" as="geometry" />
        </mxCell>
        <mxCell id="bn5VopXkFzEddgKYNh1q-18" value="" style="endArrow=none;html=1;exitX=0.375;exitY=1;exitDx=0;exitDy=0;exitPerimeter=0;" edge="1" parent="bn5VopXkFzEddgKYNh1q-1" source="bn5VopXkFzEddgKYNh1q-17" target="bn5VopXkFzEddgKYNh1q-6">
          <mxGeometry width="50" height="50" relative="1" as="geometry">
            <mxPoint x="223.03999999999996" y="346" as="sourcePoint" />
            <mxPoint x="220.21408450704234" y="577" as="targetPoint" />
          </mxGeometry>
        </mxCell>
        <mxCell id="bn5VopXkFzEddgKYNh1q-19" value="PC4" style="whiteSpace=wrap;html=1;aspect=fixed;" vertex="1" parent="bn5VopXkFzEddgKYNh1q-1">
          <mxGeometry x="380" y="260" width="80" height="80" as="geometry" />
        </mxCell>
        <mxCell id="bn5VopXkFzEddgKYNh1q-20" value="" style="endArrow=none;html=1;exitX=0.375;exitY=1;exitDx=0;exitDy=0;exitPerimeter=0;entryX=0.5;entryY=0;entryDx=0;entryDy=0;" edge="1" parent="bn5VopXkFzEddgKYNh1q-1" target="bn5VopXkFzEddgKYNh1q-7">
          <mxGeometry width="50" height="50" relative="1" as="geometry">
            <mxPoint x="413.42" y="339.5" as="sourcePoint" />
            <mxPoint x="366.99873210633945" y="566.5" as="targetPoint" />
          </mxGeometry>
        </mxCell>
        <mxCell id="bn5VopXkFzEddgKYNh1q-21" value="" style="rounded=1;whiteSpace=wrap;html=1;" vertex="1" parent="bn5VopXkFzEddgKYNh1q-1">
          <mxGeometry x="100" y="800" width="650" height="60" as="geometry" />
        </mxCell>
        <mxCell id="bn5VopXkFzEddgKYNh1q-22" value="1" style="rounded=1;whiteSpace=wrap;html=1;fillColor=#f8cecc;strokeColor=#b85450;" vertex="1" parent="bn5VopXkFzEddgKYNh1q-1">
          <mxGeometry x="130" y="810.5" width="40" height="35" as="geometry" />
        </mxCell>
        <mxCell id="bn5VopXkFzEddgKYNh1q-23" value="2" style="rounded=1;whiteSpace=wrap;html=1;fillColor=#f8cecc;strokeColor=#b85450;" vertex="1" parent="bn5VopXkFzEddgKYNh1q-1">
          <mxGeometry x="180" y="810.5" width="40" height="35" as="geometry" />
        </mxCell>
        <mxCell id="bn5VopXkFzEddgKYNh1q-24" value="3" style="rounded=1;whiteSpace=wrap;html=1;fillColor=#d5e8d4;strokeColor=#82b366;" vertex="1" parent="bn5VopXkFzEddgKYNh1q-1">
          <mxGeometry x="230" y="810.5" width="40" height="35" as="geometry" />
        </mxCell>
        <mxCell id="bn5VopXkFzEddgKYNh1q-25" value="4" style="rounded=1;whiteSpace=wrap;html=1;fillColor=#d5e8d4;strokeColor=#82b366;" vertex="1" parent="bn5VopXkFzEddgKYNh1q-1">
          <mxGeometry x="280" y="811" width="40" height="35" as="geometry" />
        </mxCell>
        <mxCell id="bn5VopXkFzEddgKYNh1q-26" value="5" style="rounded=1;whiteSpace=wrap;html=1;fillColor=#d5e8d4;strokeColor=#82b366;" vertex="1" parent="bn5VopXkFzEddgKYNh1q-1">
          <mxGeometry x="330" y="810" width="40" height="35" as="geometry" />
        </mxCell>
        <mxCell id="bn5VopXkFzEddgKYNh1q-27" value="6" style="rounded=1;whiteSpace=wrap;html=1;" vertex="1" parent="bn5VopXkFzEddgKYNh1q-1">
          <mxGeometry x="380" y="810" width="40" height="35" as="geometry" />
        </mxCell>
        <mxCell id="bn5VopXkFzEddgKYNh1q-28" value="7" style="rounded=1;whiteSpace=wrap;html=1;" vertex="1" parent="bn5VopXkFzEddgKYNh1q-1">
          <mxGeometry x="430" y="810" width="40" height="35" as="geometry" />
        </mxCell>
        <mxCell id="bn5VopXkFzEddgKYNh1q-29" value="8" style="rounded=1;whiteSpace=wrap;html=1;" vertex="1" parent="bn5VopXkFzEddgKYNh1q-1">
          <mxGeometry x="480" y="810.5" width="40" height="35" as="geometry" />
        </mxCell>
        <mxCell id="bn5VopXkFzEddgKYNh1q-30" value="PC5" style="whiteSpace=wrap;html=1;aspect=fixed;" vertex="1" parent="bn5VopXkFzEddgKYNh1q-1">
          <mxGeometry x="210" y="920" width="80" height="80" as="geometry" />
        </mxCell>
        <mxCell id="bn5VopXkFzEddgKYNh1q-31" value="" style="endArrow=none;html=1;entryX=0.25;entryY=1;entryDx=0;entryDy=0;" edge="1" parent="bn5VopXkFzEddgKYNh1q-1" target="bn5VopXkFzEddgKYNh1q-26">
          <mxGeometry width="50" height="50" relative="1" as="geometry">
            <mxPoint x="260" y="920" as="sourcePoint" />
            <mxPoint x="310" y="870" as="targetPoint" />
          </mxGeometry>
        </mxCell>
        <mxCell id="bn5VopXkFzEddgKYNh1q-32" value="PC6" style="whiteSpace=wrap;html=1;aspect=fixed;" vertex="1" parent="bn5VopXkFzEddgKYNh1q-1">
          <mxGeometry x="60" y="920" width="80" height="80" as="geometry" />
        </mxCell>
        <mxCell id="bn5VopXkFzEddgKYNh1q-33" value="" style="endArrow=none;html=1;entryX=0.75;entryY=1;entryDx=0;entryDy=0;" edge="1" parent="bn5VopXkFzEddgKYNh1q-1" target="bn5VopXkFzEddgKYNh1q-22">
          <mxGeometry width="50" height="50" relative="1" as="geometry">
            <mxPoint x="100" y="930" as="sourcePoint" />
            <mxPoint x="150" y="880" as="targetPoint" />
          </mxGeometry>
        </mxCell>
        <mxCell id="bn5VopXkFzEddgKYNh1q-34" value="" style="endArrow=none;html=1;entryX=0.75;entryY=1;entryDx=0;entryDy=0;" edge="1" parent="bn5VopXkFzEddgKYNh1q-1" source="bn5VopXkFzEddgKYNh1q-29" target="bn5VopXkFzEddgKYNh1q-11">
          <mxGeometry width="50" height="50" relative="1" as="geometry">
            <mxPoint x="390" y="670" as="sourcePoint" />
            <mxPoint x="440" y="620" as="targetPoint" />
          </mxGeometry>
        </mxCell>
        <mxCell id="bn5VopXkFzEddgKYNh1q-35" value="" style="rounded=1;whiteSpace=wrap;html=1;" vertex="1" parent="bn5VopXkFzEddgKYNh1q-1">
          <mxGeometry x="540" y="210" width="250" height="270" as="geometry" />
        </mxCell>
        <mxCell id="bn5VopXkFzEddgKYNh1q-36" value="ESXi" style="text;html=1;strokeColor=none;fillColor=none;align=center;verticalAlign=middle;whiteSpace=wrap;rounded=0;" vertex="1" parent="bn5VopXkFzEddgKYNh1q-1">
          <mxGeometry x="640" y="240" width="40" height="20" as="geometry" />
        </mxCell>
        <mxCell id="bn5VopXkFzEddgKYNh1q-37" value="pNIC" style="rounded=1;whiteSpace=wrap;html=1;" vertex="1" parent="bn5VopXkFzEddgKYNh1q-1">
          <mxGeometry x="520" y="440" width="120" height="60" as="geometry" />
        </mxCell>
        <mxCell id="bn5VopXkFzEddgKYNh1q-38" value="VM1" style="whiteSpace=wrap;html=1;aspect=fixed;" vertex="1" parent="bn5VopXkFzEddgKYNh1q-1">
          <mxGeometry x="550" y="240" width="60" height="60" as="geometry" />
        </mxCell>
        <mxCell id="bn5VopXkFzEddgKYNh1q-39" value="" style="rounded=1;whiteSpace=wrap;html=1;" vertex="1" parent="bn5VopXkFzEddgKYNh1q-1">
          <mxGeometry x="560" y="350" width="220" height="60" as="geometry" />
        </mxCell>
        <mxCell id="bn5VopXkFzEddgKYNh1q-41" value="PG1" style="rounded=1;whiteSpace=wrap;html=1;fillColor=#f8cecc;strokeColor=#b85450;" vertex="1" parent="bn5VopXkFzEddgKYNh1q-1">
          <mxGeometry x="570" y="340" width="90" height="35" as="geometry" />
        </mxCell>
        <mxCell id="bn5VopXkFzEddgKYNh1q-42" value="" style="endArrow=none;html=1;exitX=0.5;exitY=1;exitDx=0;exitDy=0;entryX=0.5;entryY=0;entryDx=0;entryDy=0;" edge="1" parent="bn5VopXkFzEddgKYNh1q-1" source="bn5VopXkFzEddgKYNh1q-38" target="bn5VopXkFzEddgKYNh1q-41">
          <mxGeometry width="50" height="50" relative="1" as="geometry">
            <mxPoint x="390" y="620" as="sourcePoint" />
            <mxPoint x="440" y="570" as="targetPoint" />
          </mxGeometry>
        </mxCell>
        <mxCell id="bn5VopXkFzEddgKYNh1q-45" value="" style="endArrow=none;html=1;exitX=0.5;exitY=1;exitDx=0;exitDy=0;" edge="1" parent="bn5VopXkFzEddgKYNh1q-1" source="bn5VopXkFzEddgKYNh1q-37" target="bn5VopXkFzEddgKYNh1q-8">
          <mxGeometry width="50" height="50" relative="1" as="geometry">
            <mxPoint x="390" y="620" as="sourcePoint" />
            <mxPoint x="440" y="570" as="targetPoint" />
          </mxGeometry>
        </mxCell>
        <mxCell id="bn5VopXkFzEddgKYNh1q-46" value="VM2" style="whiteSpace=wrap;html=1;aspect=fixed;" vertex="1" parent="bn5VopXkFzEddgKYNh1q-1">
          <mxGeometry x="710" y="240" width="60" height="60" as="geometry" />
        </mxCell>
        <mxCell id="bn5VopXkFzEddgKYNh1q-47" value="PG2" style="rounded=1;whiteSpace=wrap;html=1;fillColor=#d5e8d4;strokeColor=#82b366;" vertex="1" parent="bn5VopXkFzEddgKYNh1q-1">
          <mxGeometry x="680" y="340" width="90" height="35" as="geometry" />
        </mxCell>
        <mxCell id="bn5VopXkFzEddgKYNh1q-48" value="" style="endArrow=none;html=1;exitX=0.5;exitY=1;exitDx=0;exitDy=0;" edge="1" parent="bn5VopXkFzEddgKYNh1q-1" source="bn5VopXkFzEddgKYNh1q-46" target="bn5VopXkFzEddgKYNh1q-47">
          <mxGeometry width="50" height="50" relative="1" as="geometry">
            <mxPoint x="590" y="310" as="sourcePoint" />
            <mxPoint x="625" y="350" as="targetPoint" />
          </mxGeometry>
        </mxCell>
        <mxCell id="bn5VopXkFzEddgKYNh1q-49" value="IEEE 802.1q" style="shape=process;whiteSpace=wrap;html=1;backgroundOutline=1;fillColor=#f8cecc;strokeColor=#b85450;" vertex="1" parent="bn5VopXkFzEddgKYNh1q-1">
          <mxGeometry x="430" y="380" width="160" height="30" as="geometry" />
        </mxCell>
        <mxCell id="bn5VopXkFzEddgKYNh1q-50" value="IEEE 802.1q" style="shape=process;whiteSpace=wrap;html=1;backgroundOutline=1;fillColor=#d5e8d4;strokeColor=#82b366;" vertex="1" parent="bn5VopXkFzEddgKYNh1q-1">
          <mxGeometry x="640" y="380" width="160" height="30" as="geometry" />
        </mxCell>
      </root>
    </mxGraphModel>
  </diagram>
  <diagram id="taEgAsgMQ8MLx8wQ3FXL" name="Page-6">
    <mxGraphModel dx="1422" dy="832" grid="1" gridSize="10" guides="1" tooltips="1" connect="1" arrows="1" fold="1" page="1" pageScale="1" pageWidth="827" pageHeight="1169" math="0" shadow="0">
      <root>
        <mxCell id="ojKAWkmdEyWnpFhgoDDc-0" />
        <mxCell id="ojKAWkmdEyWnpFhgoDDc-1" parent="ojKAWkmdEyWnpFhgoDDc-0" />
        <mxCell id="ojKAWkmdEyWnpFhgoDDc-2" value="ESXi01" style="rounded=1;whiteSpace=wrap;html=1;" vertex="1" parent="ojKAWkmdEyWnpFhgoDDc-1">
          <mxGeometry x="100" y="410" width="120" height="60" as="geometry" />
        </mxCell>
        <mxCell id="ojKAWkmdEyWnpFhgoDDc-3" value="ESXi02" style="rounded=1;whiteSpace=wrap;html=1;" vertex="1" parent="ojKAWkmdEyWnpFhgoDDc-1">
          <mxGeometry x="250" y="410" width="120" height="60" as="geometry" />
        </mxCell>
        <mxCell id="ojKAWkmdEyWnpFhgoDDc-4" value="vCenter" style="rounded=1;whiteSpace=wrap;html=1;" vertex="1" parent="ojKAWkmdEyWnpFhgoDDc-1">
          <mxGeometry x="30" y="280" width="120" height="60" as="geometry" />
        </mxCell>
        <mxCell id="ojKAWkmdEyWnpFhgoDDc-5" value="Distributed Switch" style="rounded=1;whiteSpace=wrap;html=1;" vertex="1" parent="ojKAWkmdEyWnpFhgoDDc-1">
          <mxGeometry x="100" y="320" width="280" height="60" as="geometry" />
        </mxCell>
      </root>
    </mxGraphModel>
  </diagram>
  <diagram id="PBoRELfZ_shf0z48zbAA" name="Page-7">
    <mxGraphModel dx="1422" dy="832" grid="1" gridSize="10" guides="1" tooltips="1" connect="1" arrows="1" fold="1" page="1" pageScale="1" pageWidth="827" pageHeight="1169" math="0" shadow="0">
      <root>
        <mxCell id="--nYKE_EVuXMSQvYyb8F-0" />
        <mxCell id="--nYKE_EVuXMSQvYyb8F-1" parent="--nYKE_EVuXMSQvYyb8F-0" />
      </root>
    </mxGraphModel>
  </diagram>
  <diagram id="xvQYHFjv8iH04qrvSey4" name="Page-8">
    <mxGraphModel dx="1422" dy="832" grid="1" gridSize="10" guides="1" tooltips="1" connect="1" arrows="1" fold="1" page="1" pageScale="1" pageWidth="827" pageHeight="1169" math="0" shadow="0">
      <root>
        <mxCell id="Q1MiP1C1OiNr97PRjG0g-0" />
        <mxCell id="Q1MiP1C1OiNr97PRjG0g-1" parent="Q1MiP1C1OiNr97PRjG0g-0" />
        <mxCell id="Q1MiP1C1OiNr97PRjG0g-2" value="" style="rounded=1;whiteSpace=wrap;html=1;" vertex="1" parent="Q1MiP1C1OiNr97PRjG0g-1">
          <mxGeometry x="110" y="555" width="650" height="60" as="geometry" />
        </mxCell>
        <mxCell id="Q1MiP1C1OiNr97PRjG0g-3" value="CISCO SWITCH" style="text;html=1;strokeColor=none;fillColor=none;align=center;verticalAlign=middle;whiteSpace=wrap;rounded=0;" vertex="1" parent="Q1MiP1C1OiNr97PRjG0g-1">
          <mxGeometry x="120" y="640" width="40" height="20" as="geometry" />
        </mxCell>
        <mxCell id="Q1MiP1C1OiNr97PRjG0g-4" value="1" style="rounded=1;whiteSpace=wrap;html=1;fillColor=#f8cecc;strokeColor=#b85450;" vertex="1" parent="Q1MiP1C1OiNr97PRjG0g-1">
          <mxGeometry x="140" y="567" width="40" height="35" as="geometry" />
        </mxCell>
        <mxCell id="Q1MiP1C1OiNr97PRjG0g-5" value="2" style="rounded=1;whiteSpace=wrap;html=1;fillColor=#f8cecc;strokeColor=#b85450;" vertex="1" parent="Q1MiP1C1OiNr97PRjG0g-1">
          <mxGeometry x="190" y="567" width="40" height="35" as="geometry" />
        </mxCell>
        <mxCell id="Q1MiP1C1OiNr97PRjG0g-6" value="3" style="rounded=1;whiteSpace=wrap;html=1;fillColor=#d5e8d4;strokeColor=#82b366;" vertex="1" parent="Q1MiP1C1OiNr97PRjG0g-1">
          <mxGeometry x="240" y="567" width="40" height="35" as="geometry" />
        </mxCell>
        <mxCell id="Q1MiP1C1OiNr97PRjG0g-7" value="4" style="rounded=1;whiteSpace=wrap;html=1;fillColor=#d5e8d4;strokeColor=#82b366;" vertex="1" parent="Q1MiP1C1OiNr97PRjG0g-1">
          <mxGeometry x="290" y="567.5" width="40" height="35" as="geometry" />
        </mxCell>
        <mxCell id="Q1MiP1C1OiNr97PRjG0g-8" value="5" style="rounded=1;whiteSpace=wrap;html=1;fillColor=#e1d5e7;strokeColor=#9673a6;" vertex="1" parent="Q1MiP1C1OiNr97PRjG0g-1">
          <mxGeometry x="340" y="566.5" width="40" height="35" as="geometry" />
        </mxCell>
        <mxCell id="Q1MiP1C1OiNr97PRjG0g-9" value="6" style="rounded=1;whiteSpace=wrap;html=1;fillColor=#e1d5e7;strokeColor=#9673a6;" vertex="1" parent="Q1MiP1C1OiNr97PRjG0g-1">
          <mxGeometry x="390" y="566.5" width="40" height="35" as="geometry" />
        </mxCell>
        <mxCell id="Q1MiP1C1OiNr97PRjG0g-10" value="7" style="rounded=1;whiteSpace=wrap;html=1;" vertex="1" parent="Q1MiP1C1OiNr97PRjG0g-1">
          <mxGeometry x="440" y="566.5" width="40" height="35" as="geometry" />
        </mxCell>
        <mxCell id="Q1MiP1C1OiNr97PRjG0g-11" value="8" style="rounded=1;whiteSpace=wrap;html=1;" vertex="1" parent="Q1MiP1C1OiNr97PRjG0g-1">
          <mxGeometry x="490" y="567" width="40" height="35" as="geometry" />
        </mxCell>
        <mxCell id="Q1MiP1C1OiNr97PRjG0g-13" value="ESXi" style="rounded=1;whiteSpace=wrap;html=1;" vertex="1" parent="Q1MiP1C1OiNr97PRjG0g-1">
          <mxGeometry x="265" y="50" width="340" height="280" as="geometry" />
        </mxCell>
        <mxCell id="Q1MiP1C1OiNr97PRjG0g-14" value="pNIC" style="rounded=1;whiteSpace=wrap;html=1;" vertex="1" parent="Q1MiP1C1OiNr97PRjG0g-1">
          <mxGeometry x="280" y="330" width="120" height="60" as="geometry" />
        </mxCell>
        <mxCell id="Q1MiP1C1OiNr97PRjG0g-26" value="pNIC" style="rounded=1;whiteSpace=wrap;html=1;" vertex="1" parent="Q1MiP1C1OiNr97PRjG0g-1">
          <mxGeometry x="470" y="330" width="120" height="60" as="geometry" />
        </mxCell>
        <mxCell id="Q1MiP1C1OiNr97PRjG0g-27" value="" style="endArrow=none;html=1;exitX=0.395;exitY=0.1;exitDx=0;exitDy=0;exitPerimeter=0;" edge="1" parent="Q1MiP1C1OiNr97PRjG0g-1" source="Q1MiP1C1OiNr97PRjG0g-2" target="Q1MiP1C1OiNr97PRjG0g-14">
          <mxGeometry width="50" height="50" relative="1" as="geometry">
            <mxPoint x="390" y="450" as="sourcePoint" />
            <mxPoint x="440" y="400" as="targetPoint" />
          </mxGeometry>
        </mxCell>
        <mxCell id="Q1MiP1C1OiNr97PRjG0g-28" value="" style="endArrow=none;html=1;exitX=0.25;exitY=0;exitDx=0;exitDy=0;" edge="1" parent="Q1MiP1C1OiNr97PRjG0g-1" source="Q1MiP1C1OiNr97PRjG0g-9" target="Q1MiP1C1OiNr97PRjG0g-26">
          <mxGeometry width="50" height="50" relative="1" as="geometry">
            <mxPoint x="376.75" y="571" as="sourcePoint" />
            <mxPoint x="353.9925373134329" y="400" as="targetPoint" />
          </mxGeometry>
        </mxCell>
        <mxCell id="Q1MiP1C1OiNr97PRjG0g-29" value="VSWITCH" style="rounded=1;whiteSpace=wrap;html=1;" vertex="1" parent="Q1MiP1C1OiNr97PRjG0g-1">
          <mxGeometry x="310" y="210" width="220" height="60" as="geometry" />
        </mxCell>
        <mxCell id="Q1MiP1C1OiNr97PRjG0g-30" value="PG" style="rounded=1;whiteSpace=wrap;html=1;" vertex="1" parent="Q1MiP1C1OiNr97PRjG0g-1">
          <mxGeometry x="265" y="150" width="120" height="60" as="geometry" />
        </mxCell>
        <mxCell id="Q1MiP1C1OiNr97PRjG0g-31" value="LOAD BALANCING = IP HASH" style="text;html=1;strokeColor=none;fillColor=none;align=center;verticalAlign=middle;whiteSpace=wrap;rounded=0;" vertex="1" parent="Q1MiP1C1OiNr97PRjG0g-1">
          <mxGeometry x="190" y="150" width="40" height="20" as="geometry" />
        </mxCell>
        <mxCell id="Q1MiP1C1OiNr97PRjG0g-32" value="VM" style="rounded=1;whiteSpace=wrap;html=1;" vertex="1" parent="Q1MiP1C1OiNr97PRjG0g-1">
          <mxGeometry x="355" y="20" width="120" height="60" as="geometry" />
        </mxCell>
        <mxCell id="Q1MiP1C1OiNr97PRjG0g-33" value="VMAC" style="rounded=1;whiteSpace=wrap;html=1;" vertex="1" parent="Q1MiP1C1OiNr97PRjG0g-1">
          <mxGeometry x="380" y="80" width="70" height="20" as="geometry" />
        </mxCell>
        <mxCell id="Q1MiP1C1OiNr97PRjG0g-34" value="IEEE 802.3ad&lt;br&gt;LINK AGGREGATION" style="text;html=1;strokeColor=none;fillColor=none;align=center;verticalAlign=middle;whiteSpace=wrap;rounded=0;" vertex="1" parent="Q1MiP1C1OiNr97PRjG0g-1">
          <mxGeometry x="360" y="630" width="40" height="20" as="geometry" />
        </mxCell>
        <mxCell id="Q1MiP1C1OiNr97PRjG0g-35" value="" style="shape=process;whiteSpace=wrap;html=1;backgroundOutline=1;fillColor=#fff2cc;strokeColor=#d6b656;" vertex="1" parent="Q1MiP1C1OiNr97PRjG0g-1">
          <mxGeometry x="500" y="460" width="270" height="20" as="geometry" />
        </mxCell>
        <mxCell id="Q1MiP1C1OiNr97PRjG0g-36" value="" style="endArrow=none;html=1;entryX=0.314;entryY=0.95;entryDx=0;entryDy=0;entryPerimeter=0;" edge="1" parent="Q1MiP1C1OiNr97PRjG0g-1" target="Q1MiP1C1OiNr97PRjG0g-29">
          <mxGeometry width="50" height="50" relative="1" as="geometry">
            <mxPoint x="330" y="330" as="sourcePoint" />
            <mxPoint x="380" y="280" as="targetPoint" />
          </mxGeometry>
        </mxCell>
        <mxCell id="Q1MiP1C1OiNr97PRjG0g-37" value="" style="endArrow=none;html=1;entryX=0.691;entryY=0.933;entryDx=0;entryDy=0;entryPerimeter=0;" edge="1" parent="Q1MiP1C1OiNr97PRjG0g-1" source="Q1MiP1C1OiNr97PRjG0g-26" target="Q1MiP1C1OiNr97PRjG0g-29">
          <mxGeometry width="50" height="50" relative="1" as="geometry">
            <mxPoint x="340" y="340" as="sourcePoint" />
            <mxPoint x="389.0799999999999" y="277" as="targetPoint" />
          </mxGeometry>
        </mxCell>
      </root>
    </mxGraphModel>
  </diagram>
  <diagram id="lpOeJObMlsI80pQYl8TV" name="Page-9">
    <mxGraphModel dx="1422" dy="832" grid="1" gridSize="10" guides="1" tooltips="1" connect="1" arrows="1" fold="1" page="1" pageScale="1" pageWidth="827" pageHeight="1169" math="0" shadow="0">
      <root>
        <mxCell id="ZJnJ_COEazVBBQwjMIpt-0" />
        <mxCell id="ZJnJ_COEazVBBQwjMIpt-1" parent="ZJnJ_COEazVBBQwjMIpt-0" />
        <mxCell id="ZJnJ_COEazVBBQwjMIpt-19" value="LACP&amp;nbsp;&lt;br&gt;AGGREGATION&lt;br&gt;" style="ellipse;whiteSpace=wrap;html=1;" vertex="1" parent="ZJnJ_COEazVBBQwjMIpt-1">
          <mxGeometry x="390" y="260" width="220" height="80" as="geometry" />
        </mxCell>
        <mxCell id="ZJnJ_COEazVBBQwjMIpt-2" value="vCENTER" style="rounded=1;whiteSpace=wrap;html=1;" vertex="1" parent="ZJnJ_COEazVBBQwjMIpt-1">
          <mxGeometry x="50" y="80" width="120" height="60" as="geometry" />
        </mxCell>
        <mxCell id="ZJnJ_COEazVBBQwjMIpt-3" value="ESX1" style="rounded=1;whiteSpace=wrap;html=1;" vertex="1" parent="ZJnJ_COEazVBBQwjMIpt-1">
          <mxGeometry x="60" y="310" width="120" height="180" as="geometry" />
        </mxCell>
        <mxCell id="ZJnJ_COEazVBBQwjMIpt-4" value="ESX2" style="rounded=1;whiteSpace=wrap;html=1;" vertex="1" parent="ZJnJ_COEazVBBQwjMIpt-1">
          <mxGeometry x="230" y="300" width="120" height="180" as="geometry" />
        </mxCell>
        <mxCell id="ZJnJ_COEazVBBQwjMIpt-5" value="DVSWITCH" style="rounded=1;whiteSpace=wrap;html=1;" vertex="1" parent="ZJnJ_COEazVBBQwjMIpt-1">
          <mxGeometry x="70" y="130" width="730" height="60" as="geometry" />
        </mxCell>
        <mxCell id="ZJnJ_COEazVBBQwjMIpt-6" value="pNIC1" style="rounded=1;whiteSpace=wrap;html=1;" vertex="1" parent="ZJnJ_COEazVBBQwjMIpt-1">
          <mxGeometry x="60" y="480" width="60" height="30" as="geometry" />
        </mxCell>
        <mxCell id="ZJnJ_COEazVBBQwjMIpt-7" value="pNIC2" style="rounded=1;whiteSpace=wrap;html=1;" vertex="1" parent="ZJnJ_COEazVBBQwjMIpt-1">
          <mxGeometry x="120" y="480" width="60" height="30" as="geometry" />
        </mxCell>
        <mxCell id="ZJnJ_COEazVBBQwjMIpt-8" value="pNIC1" style="rounded=1;whiteSpace=wrap;html=1;" vertex="1" parent="ZJnJ_COEazVBBQwjMIpt-1">
          <mxGeometry x="230" y="480" width="60" height="30" as="geometry" />
        </mxCell>
        <mxCell id="ZJnJ_COEazVBBQwjMIpt-9" value="pNIC2" style="rounded=1;whiteSpace=wrap;html=1;" vertex="1" parent="ZJnJ_COEazVBBQwjMIpt-1">
          <mxGeometry x="290" y="480" width="60" height="30" as="geometry" />
        </mxCell>
        <mxCell id="ZJnJ_COEazVBBQwjMIpt-10" value="" style="endArrow=none;html=1;entryX=0.5;entryY=1;entryDx=0;entryDy=0;exitX=0.5;exitY=0;exitDx=0;exitDy=0;" edge="1" parent="ZJnJ_COEazVBBQwjMIpt-1" source="ZJnJ_COEazVBBQwjMIpt-6" target="ZJnJ_COEazVBBQwjMIpt-17">
          <mxGeometry width="50" height="50" relative="1" as="geometry">
            <mxPoint x="390" y="450" as="sourcePoint" />
            <mxPoint x="440" y="400" as="targetPoint" />
          </mxGeometry>
        </mxCell>
        <mxCell id="ZJnJ_COEazVBBQwjMIpt-11" value="dvUplink1" style="rounded=1;whiteSpace=wrap;html=1;" vertex="1" parent="ZJnJ_COEazVBBQwjMIpt-1">
          <mxGeometry x="110" y="190" width="120" height="40" as="geometry" />
        </mxCell>
        <mxCell id="ZJnJ_COEazVBBQwjMIpt-12" value="dvUplink2" style="rounded=1;whiteSpace=wrap;html=1;" vertex="1" parent="ZJnJ_COEazVBBQwjMIpt-1">
          <mxGeometry x="294" y="190" width="120" height="40" as="geometry" />
        </mxCell>
        <mxCell id="ZJnJ_COEazVBBQwjMIpt-13" value="dvportgroup" style="rounded=1;whiteSpace=wrap;html=1;" vertex="1" parent="ZJnJ_COEazVBBQwjMIpt-1">
          <mxGeometry x="210" y="100" width="120" height="40" as="geometry" />
        </mxCell>
        <mxCell id="ZJnJ_COEazVBBQwjMIpt-14" value="" style="endArrow=none;html=1;entryX=0.442;entryY=0.975;entryDx=0;entryDy=0;entryPerimeter=0;exitX=0.5;exitY=0;exitDx=0;exitDy=0;" edge="1" parent="ZJnJ_COEazVBBQwjMIpt-1" source="ZJnJ_COEazVBBQwjMIpt-7" target="ZJnJ_COEazVBBQwjMIpt-15">
          <mxGeometry width="50" height="50" relative="1" as="geometry">
            <mxPoint x="161.05263157894728" y="490" as="sourcePoint" />
            <mxPoint x="178.59649122807014" y="240" as="targetPoint" />
          </mxGeometry>
        </mxCell>
        <mxCell id="ZJnJ_COEazVBBQwjMIpt-15" value="LACP2" style="rounded=1;whiteSpace=wrap;html=1;" vertex="1" parent="ZJnJ_COEazVBBQwjMIpt-1">
          <mxGeometry x="630" y="190" width="120" height="40" as="geometry" />
        </mxCell>
        <mxCell id="ZJnJ_COEazVBBQwjMIpt-17" value="LACP1" style="rounded=1;whiteSpace=wrap;html=1;" vertex="1" parent="ZJnJ_COEazVBBQwjMIpt-1">
          <mxGeometry x="500" y="190" width="120" height="40" as="geometry" />
        </mxCell>
        <mxCell id="ZJnJ_COEazVBBQwjMIpt-18" value="LOAD BALANCING POLICY = DISABLED" style="text;html=1;strokeColor=none;fillColor=none;align=center;verticalAlign=middle;whiteSpace=wrap;rounded=0;fontStyle=1" vertex="1" parent="ZJnJ_COEazVBBQwjMIpt-1">
          <mxGeometry x="330" y="70" width="40" height="20" as="geometry" />
        </mxCell>
        <mxCell id="ZJnJ_COEazVBBQwjMIpt-20" value="" style="endArrow=none;html=1;entryX=0.5;entryY=1;entryDx=0;entryDy=0;exitX=0.5;exitY=0;exitDx=0;exitDy=0;" edge="1" parent="ZJnJ_COEazVBBQwjMIpt-1" source="ZJnJ_COEazVBBQwjMIpt-8" target="ZJnJ_COEazVBBQwjMIpt-17">
          <mxGeometry width="50" height="50" relative="1" as="geometry">
            <mxPoint x="100" y="490" as="sourcePoint" />
            <mxPoint x="570" y="240" as="targetPoint" />
          </mxGeometry>
        </mxCell>
        <mxCell id="ZJnJ_COEazVBBQwjMIpt-22" value="" style="endArrow=none;html=1;entryX=0.442;entryY=1;entryDx=0;entryDy=0;entryPerimeter=0;exitX=0.75;exitY=1;exitDx=0;exitDy=0;" edge="1" parent="ZJnJ_COEazVBBQwjMIpt-1" source="ZJnJ_COEazVBBQwjMIpt-4" target="ZJnJ_COEazVBBQwjMIpt-15">
          <mxGeometry width="50" height="50" relative="1" as="geometry">
            <mxPoint x="160" y="490" as="sourcePoint" />
            <mxPoint x="693.04" y="239" as="targetPoint" />
          </mxGeometry>
        </mxCell>
        <mxCell id="ZJnJ_COEazVBBQwjMIpt-23" value="" style="rounded=1;whiteSpace=wrap;html=1;" vertex="1" parent="ZJnJ_COEazVBBQwjMIpt-1">
          <mxGeometry x="40" y="620" width="580" height="60" as="geometry" />
        </mxCell>
        <mxCell id="ZJnJ_COEazVBBQwjMIpt-24" value="" style="rounded=1;whiteSpace=wrap;html=1;" vertex="1" parent="ZJnJ_COEazVBBQwjMIpt-1">
          <mxGeometry x="50" y="630" width="50" height="40" as="geometry" />
        </mxCell>
        <mxCell id="ZJnJ_COEazVBBQwjMIpt-25" value="" style="rounded=1;whiteSpace=wrap;html=1;" vertex="1" parent="ZJnJ_COEazVBBQwjMIpt-1">
          <mxGeometry x="120" y="630" width="50" height="40" as="geometry" />
        </mxCell>
        <mxCell id="ZJnJ_COEazVBBQwjMIpt-26" value="" style="endArrow=none;html=1;exitX=0.5;exitY=1;exitDx=0;exitDy=0;entryX=0.5;entryY=0;entryDx=0;entryDy=0;" edge="1" parent="ZJnJ_COEazVBBQwjMIpt-1" source="ZJnJ_COEazVBBQwjMIpt-6" target="ZJnJ_COEazVBBQwjMIpt-24">
          <mxGeometry width="50" height="50" relative="1" as="geometry">
            <mxPoint x="390" y="450" as="sourcePoint" />
            <mxPoint x="440" y="400" as="targetPoint" />
          </mxGeometry>
        </mxCell>
        <mxCell id="ZJnJ_COEazVBBQwjMIpt-27" value="" style="endArrow=none;html=1;exitX=0.5;exitY=1;exitDx=0;exitDy=0;" edge="1" parent="ZJnJ_COEazVBBQwjMIpt-1" source="ZJnJ_COEazVBBQwjMIpt-28" target="ZJnJ_COEazVBBQwjMIpt-25">
          <mxGeometry width="50" height="50" relative="1" as="geometry">
            <mxPoint x="100" y="520" as="sourcePoint" />
            <mxPoint x="85" y="640" as="targetPoint" />
          </mxGeometry>
        </mxCell>
        <mxCell id="ZJnJ_COEazVBBQwjMIpt-28" value="LACP&amp;nbsp;&lt;br&gt;AGGREGATION&lt;br&gt;" style="ellipse;whiteSpace=wrap;html=1;" vertex="1" parent="ZJnJ_COEazVBBQwjMIpt-1">
          <mxGeometry x="50" y="560" width="160" height="40" as="geometry" />
        </mxCell>
        <mxCell id="ZJnJ_COEazVBBQwjMIpt-29" value="" style="endArrow=none;html=1;exitX=0.5;exitY=1;exitDx=0;exitDy=0;" edge="1" parent="ZJnJ_COEazVBBQwjMIpt-1" source="ZJnJ_COEazVBBQwjMIpt-7" target="ZJnJ_COEazVBBQwjMIpt-28">
          <mxGeometry width="50" height="50" relative="1" as="geometry">
            <mxPoint x="150" y="510" as="sourcePoint" />
            <mxPoint x="145.71428571428578" y="630" as="targetPoint" />
          </mxGeometry>
        </mxCell>
      </root>
    </mxGraphModel>
  </diagram>
</mxfile>
